<svg width="20" height="19" viewBox="0 0 20 19" fill="none" xmlns="http://www.w3.org/2000/svg">
<g clip-path="url(#clip0_1_1319)">
<path d="M13.3542 9.51139C13.3542 9.41764 13.3241 9.34063 13.2638 9.28036C13.2035 9.22009 13.1265 9.18996 13.0328 9.18996H10.7828V5.65424C10.7828 5.56719 10.751 5.49186 10.6874 5.42824C10.6237 5.36462 10.5484 5.33282 10.4614 5.33282H8.53278C8.44573 5.33282 8.3704 5.36462 8.30678 5.42824C8.24316 5.49186 8.21136 5.56719 8.21136 5.65424V9.18996H5.96136C5.8743 9.18996 5.79897 9.22177 5.73535 9.28538C5.67174 9.349 5.63993 9.42433 5.63993 9.51139C5.63993 9.60514 5.67006 9.68215 5.73033 9.74241L9.26604 13.2781C9.32631 13.3384 9.40332 13.3685 9.49707 13.3685C9.59082 13.3685 9.66783 13.3384 9.7281 13.2781L13.2538 9.75246C13.3207 9.6721 13.3542 9.59174 13.3542 9.51139ZM19.7828 11.7614C19.7828 12.8261 19.4061 13.7352 18.6528 14.4885C17.8994 15.2419 16.9904 15.6185 15.9256 15.6185H4.99707C3.75823 15.6185 2.69852 15.1782 1.81794 14.2977C0.937361 13.4171 0.49707 12.3574 0.49707 11.1185C0.49707 10.248 0.731445 9.44442 1.2002 8.70782C1.66895 7.97121 2.29841 7.41875 3.08859 7.05045C3.0752 6.84956 3.0685 6.70558 3.0685 6.61853C3.0685 5.19889 3.57073 3.98683 4.5752 2.98237C5.57966 1.97791 6.79171 1.47567 8.21136 1.47567C9.256 1.47567 10.2119 1.76697 11.0791 2.34956C11.9463 2.93215 12.5774 3.70558 12.9725 4.66987C13.448 4.25469 14.0038 4.0471 14.6399 4.0471C15.3497 4.0471 15.9558 4.29822 16.458 4.80045C16.9602 5.30268 17.2114 5.90871 17.2114 6.61853C17.2114 7.12746 17.0741 7.58951 16.7995 8.00469C17.6701 8.21228 18.3849 8.66596 18.9441 9.36574C19.5032 10.0655 19.7828 10.8641 19.7828 11.7614Z" fill="white"/>
</g>
<defs>
<clipPath id="clip0_1_1319">
<rect width="19.3" height="18" fill="white" transform="matrix(1 0 0 -1 0.48999 18.1899)"/>
</clipPath>
</defs>
</svg>
