<svg width="17" height="19" viewBox="0 0 17 19" fill="none" xmlns="http://www.w3.org/2000/svg">
<g clip-path="url(#clip0_1_1330)">
<path d="M3.07614 14.2331H5.39645V7.26212H3.07614V14.2331ZM5.54712 5.11257C5.54042 4.76435 5.41989 4.47641 5.18551 4.24873C4.95114 4.02105 4.63975 3.90721 4.25136 3.90721C3.86297 3.90721 3.54656 4.02105 3.30214 4.24873C3.05772 4.47641 2.93551 4.76435 2.93551 5.11257C2.93551 5.45408 3.05437 5.74036 3.2921 5.97138C3.52982 6.20241 3.83953 6.31792 4.22123 6.31792H4.23127C4.62636 6.31792 4.94444 6.20241 5.18551 5.97138C5.42658 5.74036 5.54712 5.45408 5.54712 5.11257ZM11.4232 14.2331H13.7435V10.2353C13.7435 9.20408 13.4991 8.42395 13.0103 7.89493C12.5214 7.36591 11.8752 7.10141 11.0717 7.10141C10.161 7.10141 9.46118 7.49315 8.97234 8.27663H8.99243V7.26212H6.67212C6.69221 7.70408 6.69221 10.0277 6.67212 14.2331H8.99243V10.3358C8.99243 10.0813 9.01587 9.89382 9.06274 9.77328C9.16319 9.53891 9.31386 9.33969 9.51475 9.17562C9.71565 9.01156 9.96341 8.92953 10.2581 8.92953C11.0348 8.92953 11.4232 9.4552 11.4232 10.5065V14.2331ZM16.1241 4.20855V13.8514C16.1241 14.6483 15.8412 15.3296 15.2754 15.8955C14.7095 16.4613 14.0281 16.7443 13.2313 16.7443H3.58841C2.79154 16.7443 2.11018 16.4613 1.54433 15.8955C0.978481 15.3296 0.695557 14.6483 0.695557 13.8514V4.20855C0.695557 3.41167 0.978481 2.73031 1.54433 2.16446C2.11018 1.59862 2.79154 1.31569 3.58841 1.31569H13.2313C14.0281 1.31569 14.7095 1.59862 15.2754 2.16446C15.8412 2.73031 16.1241 3.41167 16.1241 4.20855Z" fill="white"/>
</g>
<defs>
<clipPath id="clip0_1_1330">
<rect width="15.44" height="18" fill="white" transform="matrix(1 0 0 -1 0.689941 18.03)"/>
</clipPath>
</defs>
</svg>
